#!OML:ASF F:\VICON\USERDATA\INSTALL\rory3\rory3.ASF
:FULLY-SPECIFIED
:DEGREES
1029
root -0.19949 16.3399 -0.592056 -159.705 -4.8742 177.925
lowerback -14.6169 0.896698 -2.04915
upperback -6.00503 0.696055 -0.54652
thorax 1.82447 0.0289975 0.684866
lowerneck -13.2794 1.99149 -1.4585
upperneck 41.1901 -3.245 2.8394
head 17.4455 -2.91657 0.425239
rclavicle 1.25483e-015 4.27387e-015
rhumerus -44.6275 -24.2909 -59.0334
rradius 11.2328
rwrist 12.7239
rhand 24.919 5.75916
rfingers 7.12502
rthumb 49.0868 -15.9302
lclavicle 1.25483e-015 4.27387e-015
lhumerus -48.9999 10.1218 71.2206
lradius 31.0735
lwrist -3.28933
lhand 26.5503 19.8397
lfingers 7.12502
lthumb 50.5806 40.7522
rfemur -25.4967 -20.9923 25.9831
rtibia 60.4993
rfoot 34.4634 -17.3436
rtoes 18.5594
lfemur -37.9185 0.420521 -34.3941
ltibia 42.0925
lfoot -33.8184 20.2797
ltoes 4.21478
1030
root -0.197119 16.3398 -0.589753 -159.697 -4.82183 177.918
lowerback -14.6982 0.899104 -2.09496
upperback -5.92994 0.717542 -0.530338
thorax 1.94513 0.0428379 0.731714
lowerneck -13.4356 1.99297 -1.34809
upperneck 41.2301 -3.19421 2.68094
head 17.5021 -2.89128 0.34156
rclavicle -1.35422e-015 5.46658e-015
rhumerus -44.4404 -24.1993 -59.2444
rradius 11.3008
rwrist 12.4585
rhand 24.8558 5.91931
rfingers 7.12502
rthumb 49.0287 -15.7989
lclavicle -1.35422e-015 5.46658e-015
lhumerus -48.7713 10.2499 71.2074
lradius 30.939
lwrist -3.49227
lhand 26.5865 19.7514
lfingers 7.12502
lthumb 50.6136 40.6459
rfemur -25.4891 -20.9211 25.9788
rtibia 60.5137
rfoot 34.2778 -17.6764
rtoes 19.3101
lfemur -37.9492 0.41331 -34.3994
ltibia 42.0995
lfoot -33.7393 20.4765
ltoes 4.07668
1031
root -0.194404 16.3382 -0.585538 -159.64 -4.7187 177.834
lowerback -14.8301 0.904205 -2.21925
upperback -5.87452 0.749384 -0.548797
thorax 2.07043 0.0596237 0.788665
lowerneck -13.4328 1.99616 -1.27001
upperneck 41.2359 -3.15744 2.54796
head 17.4988 -2.88078 0.273646
rclavicle -9.3025e-015 9.93923e-017
rhumerus -44.3935 -24.3466 -59.2105
rradius 11.322
rwrist 12.5524
rhand 25.0088 6.12115
rfingers 7.12502
rthumb 49.1693 -15.5271
lclavicle -9.3025e-015 9.93923e-017
lhumerus -48.6189 10.2431 71.2605
lradius 30.9534
lwrist -3.56303
lhand 26.8064 19.9553
lfingers 7.12502
lthumb 50.8143 40.7398
rfemur -25.5691 -20.8055 25.8952
rtibia 60.5439
rfoot 34.2953 -18.1205
rtoes 20.4432
lfemur -38.0164 0.391698 -34.5009
ltibia 42.1317
lfoot -33.6076 20.6751
ltoes 4.27165
1032
root -0.194095 16.336 -0.584702 -159.552 -4.66342 177.893
lowerback -14.9855 0.951634 -2.14873
upperback -5.85898 0.803419 -0.545006
thorax 2.16943 0.0831461 0.762794
lowerneck -13.0312 1.87651 -1.49574
upperneck 40.8367 -3.28798 2.78143
head 17.1793 -2.92567 0.411385
rclavicle 1.38497e-014 6.36111e-015
rhumerus -44.4234 -24.4346 -59.1568
rradius 11.282
rwrist 12.6819
rhand 25.0044 6.37379
rfingers 7.12502
rthumb 49.1652 -15.2765
lclavicle 1.38497e-014 6.36111e-015
lhumerus -48.5913 10.1339 71.3432
lradius 31.1694
lwrist -3.60095
lhand 26.9644 20.1062
lfingers 7.12502
lthumb 50.9583 40.8108
rfemur -25.6953 -20.7126 25.9797
rtibia 60.5476
rfoot 34.4594 -18.2245
rtoes 20.8292
lfemur -38.1551 0.392112 -34.4524
ltibia 42.1882
lfoot -33.7025 20.5549
ltoes 4.68267
1033
root -0.192141 16.3378 -0.585789 -159.52 -4.77616 178.028
lowerback -15.0924 0.942258 -2.00478
upperback -5.82444 0.776035 -0.510003
thorax 2.26611 0.0685119 0.71461
lowerneck -12.5728 1.76011 -1.65434
upperneck 40.3587 -3.39515 2.96976
head 16.8057 -2.95313 0.521682
rclavicle -9.75287e-015 -1.2424e-014
rhumerus -44.243 -24.1522 -59.5238
rradius 11.2996
rwrist 12.3256
rhand 24.8145 6.48325
rfingers 7.12502
rthumb 48.9908 -15.2537
lclavicle -9.75287e-015 -1.2424e-014
lhumerus -48.4943 10.0977 71.3678
lradius 31.2893
lwrist -3.66834
lhand 27.3037 20.1055
lfingers 7.12502
lthumb 51.2673 40.6365
rfemur -25.7117 -20.7077 26.1989
rtibia 60.4996
rfoot 34.1094 -18.7544
rtoes 21.5769
lfemur -38.2478 0.387722 -34.2901
ltibia 42.25
lfoot -33.6524 20.5585
ltoes 4.43106
1034
root -0.188782 16.3383 -0.583842 -159.548 -4.86465 178.111
lowerback -15.0968 0.909336 -1.96247
upperback -5.77133 0.735445 -0.457443
thorax 2.3257 0.0518179 0.739236
lowerneck -12.8822 1.82529 -1.33245
upperneck 40.5968 -3.27025 2.60377
head 16.9987 -2.9006 0.314384
rclavicle -3.19919e-016 6.4605e-015
rhumerus -44.2592 -24.8997 -58.9539
rradius 11.0408
rwrist 13.165
rhand 24.7965 6.642
rfingers 7.12502
rthumb 48.9743 -15.1031
lclavicle -3.19919e-016 6.4605e-015
lhumerus -48.357 10.3641 71.2076
lradius 31.1917
lwrist -4.2409
lhand 27.6022 19.8196
lfingers 7.12502
lthumb 51.5389 40.1952
rfemur -25.6646 -20.7208 26.3466
rtibia 60.4592
rfoot 33.9224 -18.6454
rtoes 21.1661
lfemur -38.277 0.418297 -34.1681
ltibia 42.2868
lfoot -33.6065 20.4675
ltoes 4.38205
1035
root -0.191741 16.3374 -0.584991 -159.608 -4.87191 178.166
lowerback -15.1164 0.922413 -1.84134
upperback -5.7192 0.744624 -0.444071
thorax 2.39322 0.0580034 0.686729
lowerneck -13.1745 1.90939 -1.10607
upperneck 40.8732 -3.14064 2.32059
head 17.2153 -2.85557 0.159158
rclavicle 1.09518e-014 -1.88845e-015
rhumerus -44.3159 -25.4305 -58.4961
rradius 10.828
rwrist 13.8485
rhand 24.7473 6.88879
rfingers 7.12502
rthumb 48.929 -14.8786
lclavicle 1.09518e-014 -1.88845e-015
lhumerus -48.2934 10.4176 71.1726
lradius 31.1305
lwrist -4.52856
lhand 27.7949 19.9099
lfingers 7.12502
lthumb 51.714 40.1839
rfemur -25.5768 -20.7878 26.3499
rtibia 60.4379
rfoot 34.2666 -18.1282
rtoes 20.4913
lfemur -38.219 0.480414 -34.1272
ltibia 42.2946
lfoot -33.7047 20.3008
ltoes 4.63601
1036
root -0.185291 16.338 -0.589602 -159.516 -4.77642 178.077
lowerback -15.2944 0.935329 -2.01282
upperback -5.71101 0.785155 -0.477887
thorax 2.4923 0.0755255 0.756214
lowerneck -13.0773 1.90668 -1.07316
upperneck 40.7752 -3.14342 2.35228
head 17.1355 -2.84304 0.171248
rclavicle -2.83175e-014 5.86415e-015
rhumerus -44.3377 -25.4118 -58.599
rradius 10.934
rwrist 13.8206
rhand 24.7893 6.81678
rfingers 7.12502
rthumb 48.9677 -14.9316
lclavicle -2.83175e-014 5.86415e-015
lhumerus -48.349 10.2431 71.2435
lradius 31.3002
lwrist -4.45006
lhand 27.8162 19.9985
lfingers 7.12502
lthumb 51.7333 40.2612
rfemur -25.7446 -20.685 26.3184
rtibia 60.4837
rfoot 34.6709 -17.4875
rtoes 18.4516
lfemur -38.2899 0.498425 -34.2225
ltibia 42.2441
lfoot -33.6566 20.4494
ltoes 4.54517
1037
root -0.181353 16.3392 -0.592204 -159.519 -4.80656 178.01
lowerback -15.3556 0.869418 -2.13271
upperback -5.63495 0.727453 -0.456441
thorax 2.6039 0.050893 0.837275
lowerneck -13.1338 1.91482 -1.01681
upperneck 40.6708 -3.07073 2.2992
head 17.087 -2.79692 0.154702
rclavicle -9.47333e-015 4.96962e-016
rhumerus -44.1819 -25.5965 -58.5455
rradius 10.8924
rwrist 14.0794
rhand 24.9424 6.75699
rfingers 7.12502
rthumb 49.1083 -14.9217
lclavicle -9.47333e-015 4.96962e-016
lhumerus -48.2387 10.3102 71.2569
lradius 31.2968
lwrist -4.41713
lhand 27.8978 19.6369
lfingers 7.12502
lthumb 51.8074 39.8562
rfemur -25.7527 -20.669 26.2847
rtibia 60.53
rfoot 34.4549 -17.6174
rtoes 18.6321
lfemur -38.2313 0.558004 -34.3113
ltibia 42.1752
lfoot -33.4253 20.7176
ltoes 3.91621
1038
root -0.179853 16.3428 -0.593682 -159.564 -4.80213 177.933
lowerback -15.3244 0.862562 -2.18697
upperback -5.60582 0.732721 -0.493832
thorax 2.61731 0.0556172 0.829558
lowerneck -13.1611 1.91939 -1.04587
upperneck 40.6906 -3.08625 2.36423
head 17.1077 -2.7992 0.185722
rclavicle 9.37705e-015 -1.59028e-015
rhumerus -44.1541 -25.6789 -58.5433
rradius 10.8549
rwrist 14.156
rhand 24.9105 6.69027
rfingers 7.12502
rthumb 49.0789 -15.003
lclavicle 9.37705e-015 -1.59028e-015
lhumerus -48.0758 10.1477 71.3677
lradius 31.1898
lwrist -4.18308
lhand 27.7239 19.5741
lfingers 7.12502
lthumb 51.6494 39.8856
rfemur -25.8078 -20.6977 26.2016
rtibia 60.5901
rfoot 34.7209 -16.9578
rtoes 16.7839
lfemur -38.1225 0.702405 -34.4272
ltibia 42.0975
lfoot -33.2015 20.7504
ltoes 3.73847
1039
root -0.179365 16.3376 -0.590446 -159.543 -4.73343 177.739
lowerback -15.288 0.874227 -2.3355
upperback -5.68177 0.75777 -0.596115
thorax 2.51527 0.0642314 0.809949
lowerneck -12.9255 1.93711 -1.04719
upperneck 40.6828 -3.12575 2.43132
head 17.0459 -2.82189 0.208929
rclavicle -9.15341e-015 -9.93923e-017
rhumerus -44.3021 -25.5528 -58.6112
rradius 10.8968
rwrist 13.9973
rhand 24.7979 6.81314
rfingers 7.12502
rthumb 48.9755 -14.9313
lclavicle -9.15341e-015 -9.93923e-017
lhumerus -48.1714 9.83736 71.4779
lradius 31.2287
lwrist -4.02401
lhand 27.548 19.9023
lfingers 7.12502
lthumb 51.4896 40.3064
rfemur -25.72 -20.7296 25.9451
rtibia 60.6504
rfoot 34.0994 -18.3989
rtoes 20.8673
lfemur -38.1067 0.702156 -34.6669
ltibia 42.0555
lfoot -33.0379 20.9627
ltoes 3.42635
1040
root -0.17912 16.3387 -0.589449 -159.52 -4.74181 177.765
lowerback -15.3061 0.874106 -2.30064
upperback -5.65972 0.756712 -0.59999
thorax 2.54903 0.0641598 0.786252
lowerneck -13.0044 1.94826 -0.982947
upperneck 40.7058 -3.10592 2.39046
head 17.0769 -2.80565 0.181852
rclavicle -2.63079e-014 -6.85807e-015
rhumerus -44.3406 -25.8531 -58.4223
rradius 10.7983
rwrist 14.4463
rhand 24.5923 7.37742
rfingers 7.12502
rthumb 48.7866 -14.4599
lclavicle -2.63079e-014 -6.85807e-015
lhumerus -48.2255 9.58683 71.634
lradius 31.5291
lwrist -3.86837
lhand 27.5928 20.0905
lfingers 7.12502
lthumb 51.5303 40.471
rfemur -25.7734 -20.7426 25.994
rtibia 60.6978
rfoot 34.0844 -18.3086
rtoes 20.6322
lfemur -38.1136 0.702005 -34.6219
ltibia 42.0077
lfoot -33.1461 20.7932
ltoes 3.53855
1041
root -0.180838 16.3387 -0.590925 -159.503 -4.77702 177.837
lowerback -15.3684 0.86559 -2.16179
upperback -5.61396 0.733347 -0.592875
thorax 2.634 0.0527644 0.711928
lowerneck -13.1548 1.95434 -0.965157
upperneck 40.7722 -3.10097 2.37581
head 17.1525 -2.80006 0.170259
rclavicle -1.50797e-014 -8.64713e-015
rhumerus -44.2434 -25.8977 -58.4985
rradius 10.8074
rwrist 14.4747
rhand 24.5766 7.31861
rfingers 7.12502
rthumb 48.7721 -14.5257
lclavicle -1.50797e-014 -8.64713e-015
lhumerus -48.2948 9.31413 71.8438
lradius 31.9357
lwrist -3.638
lhand 27.6144 20.4033
lfingers 7.12502
lthumb 51.5499 40.7726
rfemur -25.7858 -20.78 26.0835
rtibia 60.6728
rfoot 34.0652 -18.1914
rtoes 20.2776
lfemur -38.1521 0.762323 -34.5644
ltibia 42.0538
lfoot -33.2104 20.6085
ltoes 3.89072
1042
root -0.181432 16.3383 -0.593068 -159.413 -4.69985 177.559
lowerback -15.4212 0.831575 -2.42482
upperback -5.61752 0.726223 -0.683888
thorax 2.65424 0.047938 0.764086
lowerneck -13.2246 1.96113 -0.913363
upperneck 40.8155 -3.1125 2.36931
head 17.195 -2.79757 0.154116
rclavicle 1.27471e-014 7.7526e-015
rhumerus -44.2155 -26.0386 -58.4341
rradius 10.7471
rwrist 14.6376
rhand 24.6871 7.18363
rfingers 7.12502
rthumb 48.8737 -14.611
lclavicle 1.27471e-014 7.7526e-015
lhumerus -48.2098 9.30548 71.8292
lradius 31.8337
lwrist -3.74537
lhand 27.6137 20.3932
lfingers 7.12502
lthumb 51.5493 40.7628
rfemur -25.9077 -20.879 25.7793
rtibia 60.722
rfoot 33.9657 -18.1982
rtoes 20.2071
lfemur -38.178 0.903934 -34.9426
ltibia 42.021
lfoot -33.1163 20.5264
ltoes 3.77016
1043
root -0.173384 16.3421 -0.597816 -159.576 -4.85848 178.117
lowerback -15.2752 0.853354 -1.94577
upperback -5.57223 0.692864 -0.491574
thorax 2.63257 0.0370816 0.688773
lowerneck -13.4509 1.96772 -0.910253
upperneck 40.9383 -3.11227 2.35417
head 17.3232 -2.79724 0.141703
rclavicle 2.168e-015 3.37934e-015
rhumerus -44.1257 -26.1639 -58.383
rradius 10.6807
rwrist 14.7541
rhand 24.7163 7.20189
rfingers 7.12502
rthumb 48.9005 -14.5796
lclavicle 2.168e-015 3.37934e-015
lhumerus -48.0189 9.52276 71.7083
lradius 31.5069
lwrist -3.96914
lhand 27.8103 20.4024
lfingers 7.12502
lthumb 51.728 40.6682
rfemur -25.6879 -20.7214 26.4519
rtibia 60.598
rfoot 33.1926 -18.2604
rtoes 19.6479
lfemur -38.1003 0.844952 -34.2168
ltibia 42.0536
lfoot -33.2233 20.4169
ltoes 4.41523
